<?xml version="1.0" encoding="UTF-8"?>
<svg version="1.1" xmlns="http://www.w3.org/2000/svg" width="2358" height="927">
<path d="M0 0 C1.26913239 -0.00014603 2.53826477 -0.00029205 3.84585571 -0.0004425 C7.30396377 -0.00072787 10.7620367 0.00512661 14.22013664 0.01213145 C17.84227187 0.01840849 21.46440802 0.01897222 25.08654785 0.02015686 C31.93573722 0.02325739 38.7849105 0.03145348 45.63409281 0.04150635 C53.43582053 0.05270727 61.23754903 0.05818794 69.0392828 0.06320179 C85.0789323 0.07363722 101.11856566 0.0912118 117.15820312 0.11352539 C117.15820312 0.77352539 117.15820312 1.43352539 117.15820312 2.11352539 C116.46597656 2.49460449 115.77375 2.87568359 115.06054688 3.26831055 C101.69959993 10.63311447 88.40639386 18.08106766 75.2578125 25.82080078 C66.33653273 31.05324681 57.30519294 36.07502127 48.24023438 41.05297852 C42.43301955 44.25079947 36.73742811 47.53171712 31.15820312 51.11352539 C31.88523437 52.07129883 32.61226562 53.02907227 33.36132812 54.01586914 C39.24002562 61.79025148 44.9912399 69.63518055 50.5871582 77.61547852 C55.82345288 85.07967718 61.16753143 92.46416354 66.51708984 99.84741211 C69.23468486 103.59997339 71.94614785 107.35695959 74.65820312 111.11352539 C75.74150674 112.61354685 76.82484008 114.11354685 77.90820312 115.61352539 C97.40820313 142.61352539 97.40820313 142.61352539 99.03344727 144.86401367 C100.11577661 146.36252345 101.19829586 147.86089609 102.28100586 149.35913086 C105.00628157 153.13082391 107.72811549 156.90491516 110.44335938 160.68383789 C115.79097749 168.12026998 121.17139297 175.52896758 126.65820312 182.86352539 C127.37858765 183.82863037 127.37858765 183.82863037 128.11352539 184.81323242 C135.2939496 194.92593125 135.2939496 194.92593125 146.15820312 200.11352539 C149.53032689 200.33386513 152.90456653 200.29866601 156.28320312 200.30102539 C157.18296875 200.31327148 158.08273437 200.32551758 159.00976562 200.33813477 C167.73325892 200.3569354 175.82907383 199.9658073 182.68554688 194.13696289 C186.63402958 188.7117267 187.60305794 182.75785618 187.55693054 176.20410156 C187.56357737 175.44997608 187.5702242 174.6958506 187.57707244 173.91887283 C187.59559151 171.41460587 187.59310474 168.91082136 187.59057617 166.40649414 C187.59960013 164.60237459 187.6099289 162.79826116 187.62145996 160.99415588 C187.64898163 156.11253759 187.65830793 151.23103579 187.66431403 146.34934998 C187.67371026 141.24172369 187.69991469 136.13418398 187.72431946 131.02661133 C187.76795374 121.36187749 187.79651959 111.69716048 187.81964284 102.03235817 C187.84671095 91.02628618 187.8906215 80.02030142 187.93593156 69.01429176 C188.02873392 46.38073762 188.09821171 23.74719192 188.15820312 1.11352539 C207.29820313 1.11352539 226.43820312 1.11352539 246.15820312 1.11352539 C246.20340916 27.47003324 246.24022675 53.82650953 246.26182747 80.18304634 C246.27212514 92.42176835 246.28615658 104.66046451 246.30908203 116.89916992 C246.32906215 127.57063467 246.34193052 138.24208068 246.34638011 148.91356361 C246.34897967 154.56017812 246.35505821 160.20673905 246.36966324 165.85333633 C246.38332025 171.17695182 246.38740946 176.50049205 246.38441849 181.82412338 C246.38496504 183.76944132 246.3888938 185.714762 246.39661407 187.6600647 C246.47352197 208.05309177 245.33588907 227.02781442 231.15820312 243.11352539 C222.30471665 251.8191457 210.2668797 255.23663149 198.15844727 255.30639648 C197.3675621 255.31457397 196.57667694 255.32275146 195.76182556 255.33117676 C193.15567769 255.35590458 190.54958364 255.37251039 187.94335938 255.38696289 C187.05076353 255.39228657 186.15816769 255.39761024 185.23852348 255.40309525 C180.51782975 255.42976641 175.79716196 255.44916426 171.07641602 255.46362305 C167.17416041 255.47698219 163.27242524 255.50487953 159.37036133 255.5456543 C154.65073151 255.59496346 149.93157493 255.6197409 145.21169853 255.62685013 C143.416354 255.63356002 141.62101994 255.64877535 139.82582283 255.67274094 C137.3124396 255.70439222 134.80088405 255.70443052 132.28735352 255.69702148 C131.55001984 255.71342682 130.81268616 255.72983215 130.05300903 255.74673462 C124.32536534 255.67778168 122.01145285 254.05862288 118.15820312 250.11352539 C116.78320313 247.30102539 116.78320313 247.30102539 116.15820312 245.11352539 C115.61292969 245.81928711 115.61292969 245.81928711 115.05664062 246.53930664 C114.30253906 247.47323242 114.30253906 247.47323242 113.53320312 248.42602539 C113.0459375 249.0409082 112.55867188 249.65579102 112.05664062 250.28930664 C107.56765782 254.60279424 103.06702611 255.4893626 96.99868774 255.50120544 C95.95203353 255.50928375 95.95203353 255.50928375 94.88423479 255.51752526 C92.55822049 255.53177352 90.23277782 255.52470914 87.90673828 255.51757812 C86.23412114 255.5232834 84.56150789 255.53024827 82.88890076 255.53837585 C78.35368334 255.55630636 73.81865943 255.55513893 69.28341722 255.54943347 C65.49373051 255.54634105 61.70408093 255.55243477 57.9143995 255.55847222 C48.97154736 255.57251587 40.02879075 255.57095786 31.0859375 255.55957031 C21.86888954 255.54809275 12.65213268 255.56215902 3.43512309 255.58896679 C-4.48609729 255.61114071 -12.4072264 255.61775724 -20.32847559 255.61189038 C-25.05600303 255.60852322 -29.78334393 255.61091966 -34.51084518 255.6281414 C-38.95806212 255.64363514 -43.40484879 255.63962817 -47.85204887 255.62083626 C-49.48060081 255.6171569 -51.10918478 255.62023979 -52.73770714 255.63072205 C-63.92061927 255.69718531 -70.95855994 254.5811554 -79.84179688 247.36352539 C-80.98648437 246.44313477 -80.98648437 246.44313477 -82.15429688 245.50415039 C-82.71117187 245.04524414 -83.26804687 244.58633789 -83.84179688 244.11352539 C-84.26332031 245.02231445 -84.26332031 245.02231445 -84.69335938 245.94946289 C-86.98692427 250.27135049 -90.39578764 253.19439035 -94.84179688 255.11352539 C-103.76994329 256.63611211 -112.89532591 256.25080383 -121.92530918 256.23657322 C-123.78959909 256.23731327 -125.65388887 256.23849229 -127.51817825 256.24006972 C-132.65249618 256.24313851 -137.78679431 256.23996378 -142.92111077 256.23579158 C-148.50243693 256.23235768 -154.08376108 256.23472813 -159.66508764 256.23636907 C-169.45063368 256.23844356 -179.23617364 256.23679776 -189.02171898 256.23273087 C-203.57250982 256.22670031 -218.12329778 256.22639297 -232.67408947 256.22727285 C-257.14983929 256.22868015 -281.62558651 256.2252502 -306.10133553 256.21925545 C-330.34006831 256.21333293 -354.57879999 256.20948035 -378.81753349 256.20840263 C-379.57030488 256.20836822 -380.32307626 256.20833381 -381.0986589 256.20829836 C-387.97406949 256.20798516 -394.84948007 256.20769747 -401.72489066 256.20744038 C-418.81636459 256.20680099 -435.9078385 256.20584166 -452.9993124 256.20466518 C-453.77761901 256.20461187 -454.55592563 256.20455855 -455.35781729 256.20450362 C-493.21763056 256.20188212 -531.07744311 256.19557457 -568.93725586 256.18896484 C-582.07539876 256.18667318 -595.21354166 256.18439782 -608.35168457 256.18218994 C-609.16651389 256.18205299 -609.9813432 256.18191604 -610.82086432 256.18177494 C-648.70052719 256.17543081 -686.58019019 256.17170526 -724.45985346 256.16865515 C-726.9190424 256.16845708 -729.37823134 256.16825789 -731.83742028 256.16805847 C-748.13459942 256.16673869 -764.43177856 256.16546404 -780.7289577 256.16421961 C-813.15627493 256.16174311 -845.58359214 256.15900143 -878.01090933 256.15607756 C-879.55518131 256.15593832 -881.09945329 256.15579927 -882.64372527 256.1556604 C-962.41559575 256.14848516 -1042.18746552 256.13709529 -1190.84179688 256.11352539 C-1190.83368484 256.91687317 -1190.82557281 257.72022095 -1190.81721497 258.5479126 C-1190.81090561 259.61273865 -1190.80459625 260.6775647 -1190.7980957 261.7746582 C-1190.78998367 262.82550598 -1190.78187164 263.87635376 -1190.77351379 264.95904541 C-1190.87602354 269.69469779 -1191.63068284 274.22230419 -1192.52929688 278.86352539 C-1192.7079126 279.80873047 -1192.88652832 280.75393555 -1193.07055664 281.7277832 C-1196.03178047 296.76932412 -1199.45843439 313.95796152 -1212.84179688 323.11352539 C-1215.59633181 324.0317037 -1217.2015746 324.23802218 -1220.03719616 324.23657322 C-1220.89660122 324.23856427 -1221.75600628 324.24055532 -1222.64145392 324.2426067 C-1223.58599773 324.23969386 -1224.53054154 324.23678102 -1225.50370789 324.23377991 C-1227.00825829 324.23506154 -1227.00825829 324.23506154 -1228.54320365 324.23636907 C-1231.91968948 324.23802224 -1235.29612613 324.23250514 -1238.67260742 324.22705078 C-1241.08681233 324.22676885 -1243.50101731 324.22692676 -1245.91522217 324.22749329 C-1251.1208157 324.22772134 -1256.32639803 324.22487645 -1261.53198814 324.21925545 C-1269.05842789 324.21113367 -1276.58486157 324.20852453 -1284.11130521 324.20726746 C-1296.32200964 324.20507801 -1308.5327074 324.19842081 -1320.7434082 324.18896484 C-1332.60603807 324.17978797 -1344.46866613 324.17270848 -1356.33129883 324.16845703 C-1357.42783745 324.16806295 -1357.42783745 324.16806295 -1358.54652836 324.1676609 C-1362.2138139 324.16635588 -1365.88109946 324.16509216 -1369.54838502 324.163849 C-1399.97952709 324.15347971 -1430.41066106 324.13579004 -1460.84179688 324.11352539 C-1456.90670925 322.03302757 -1452.88206858 320.99865047 -1448.57836914 319.953125 C-1447.74113784 319.74571151 -1446.90390654 319.53829802 -1446.04130459 319.32459927 C-1443.2480356 318.63381858 -1440.45314393 317.9498514 -1437.65820312 317.26586914 C-1435.67673756 316.77731835 -1433.69537572 316.2883467 -1431.71411133 315.79898071 C-1427.48401016 314.75512787 -1423.25318341 313.71428764 -1419.02175903 312.67581177 C-1412.38562883 311.047161 -1405.75118657 309.41170822 -1399.11694336 307.77539062 C-1380.76323422 303.25019441 -1362.40544123 298.74162748 -1344.04676819 294.23661804 C-1338.63078841 292.90752231 -1333.2151889 291.57687963 -1327.79965115 290.24598408 C-1323.66480074 289.23014319 -1319.52917729 288.21753676 -1315.39286327 287.20767307 C-1295.80785776 282.42304278 -1276.31660672 277.3253889 -1256.84179688 272.11352539 C-1256.51179688 266.83352539 -1256.18179688 261.55352539 -1255.84179688 256.11352539 C-1259.49544312 256.14494629 -1259.49544312 256.14494629 -1263.22290039 256.17700195 C-1271.32525593 256.24366834 -1279.42762447 256.28761778 -1287.53018284 256.32077408 C-1292.43653083 256.34153347 -1297.34259474 256.36963471 -1302.2487793 256.4152832 C-1306.99505796 256.45916097 -1311.74106562 256.48274976 -1316.48753166 256.49303436 C-1318.28659257 256.50035129 -1320.08564084 256.51463635 -1321.88458443 256.53644562 C-1341.49784326 256.76448554 -1357.9482769 253.32460509 -1372.63476562 239.30883789 C-1373.36308594 238.58438477 -1374.09140625 237.85993164 -1374.84179688 237.11352539 C-1375.39480469 236.59532227 -1375.9478125 236.07711914 -1376.51757812 235.54321289 C-1386.6538756 225.1063783 -1391.66195803 208.97075581 -1392.21679688 194.80102539 C-1391.46773335 172.65479954 -1383.23874637 151.8950628 -1368.84179688 135.11352539 C-1368.12636719 134.2537207 -1367.4109375 133.39391602 -1366.67382812 132.50805664 C-1342.74508973 104.83191387 -1306.66349495 91.04423362 -1270.84179688 88.11352539 C-1265.87345977 87.84576898 -1260.90671817 87.82340604 -1255.93237305 87.8527832 C-1253.7762454 87.86354062 -1251.62094717 87.85278378 -1249.46484375 87.84008789 C-1233.03005208 87.82281649 -1214.51681726 88.37634284 -1201.84179688 100.11352539 C-1201.2875 100.6149707 -1200.73320313 101.11641602 -1200.16210938 101.63305664 C-1191.6942608 110.29048391 -1190.70855317 123.29920342 -1190.72827148 134.81469727 C-1190.72812546 135.5376297 -1190.72797943 136.26056213 -1190.72782898 137.00540161 C-1190.7285185 139.36439145 -1190.73626524 141.72329957 -1190.74414062 144.08227539 C-1190.74600823 145.72993934 -1190.74743051 147.37760385 -1190.74842834 149.02526855 C-1190.75222658 153.33900515 -1190.76203355 157.6527075 -1190.77313232 161.96643066 C-1190.78340467 166.37743669 -1190.78793839 170.78844832 -1190.79296875 175.19946289 C-1190.8036585 183.83749935 -1190.82070217 192.4755081 -1190.84179688 201.11352539 C-1103.88361575 201.06010446 -1016.9254334 201.0064813 -892.46868896 200.91220093 C-890.98230609 200.91105585 -889.49592321 200.90991078 -888.00954034 200.90876571 C-856.80984106 200.88472137 -825.61014211 200.86026743 -794.41044353 200.83534034 C-778.73775687 200.82281903 -763.06507015 200.81037644 -747.39238337 200.79800826 C-745.02822056 200.79614211 -742.66405775 200.79427372 -740.29989494 200.79240523 C-703.89595619 200.76365361 -667.49201714 200.73658977 -631.08807373 200.7144165 C-630.30538129 200.71393974 -629.52268886 200.71346298 -628.71627847 200.71297177 C-616.09699269 200.70529522 -603.47770683 200.69776035 -590.85842096 200.69024428 C-554.51011764 200.66859301 -518.16181634 200.64589381 -481.81351852 200.61626244 C-481.06601028 200.61565357 -480.31850203 200.61504471 -479.54834202 200.61441739 C-463.13853598 200.6010324 -446.72873043 200.58710865 -430.31892527 200.57267484 C-423.71612388 200.5668766 -417.11332242 200.56115592 -410.51052094 200.55546188 C-409.7878741 200.55483683 -409.06522726 200.55421177 -408.32068203 200.55356777 C-385.03875376 200.53346851 -361.75682701 200.51968155 -338.47489257 200.50920723 C-314.36871317 200.49833239 -290.26254958 200.48043523 -266.15638158 200.45435835 C-252.2549698 200.43954078 -238.35358006 200.43029372 -224.45216031 200.42895856 C-215.17054431 200.42752264 -205.88895317 200.41889007 -196.60734846 200.40436947 C-191.31594704 200.39629843 -186.02459442 200.3913909 -180.73318711 200.39524658 C-175.91780174 200.39869381 -171.10251738 200.39295567 -166.28714915 200.37994474 C-164.55746824 200.37687129 -162.82777734 200.37711997 -161.09809835 200.38113414 C-145.12554947 201.10201472 -145.12554947 201.10201472 -130.71679688 195.86352539 C-126.69325399 189.96232916 -126.53960496 184.33548481 -126.52294922 177.4362793 C-126.51290359 176.47955322 -126.50285797 175.52282715 -126.49250793 174.53710938 C-126.46172139 171.38810808 -126.44465326 168.23919165 -126.42773438 165.09008789 C-126.4090191 162.90147168 -126.38944542 160.71286266 -126.36904907 158.52426147 C-126.31775995 152.77370443 -126.27811687 147.02312401 -126.24090576 141.27246094 C-126.1937984 134.3673564 -126.13221428 127.4623676 -126.07305908 120.55735779 C-125.98488609 110.07612712 -125.91509333 99.59491821 -125.84179688 89.11352539 C-104.06179688 89.11352539 -82.28179688 89.11352539 -59.84179688 89.11352539 C-59.81601563 96.31165039 -59.79023437 103.50977539 -59.76367188 110.92602539 C-59.73849855 115.49246703 -59.71216181 120.05884276 -59.68164062 124.62524414 C-59.63333132 131.86954989 -59.58927684 139.11370303 -59.57080078 146.3581543 C-59.55563116 152.2003371 -59.52117934 158.04212009 -59.47348785 163.88412476 C-59.45867736 166.11034668 -59.45075605 168.33662569 -59.44991302 170.56289673 C-59.44754071 173.68697484 -59.42043832 176.80995045 -59.38769531 179.93383789 C-59.39524086 181.30733147 -59.39524086 181.30733147 -59.40293884 182.70857239 C-59.30923078 188.50656779 -58.53531456 193.45921464 -54.84179688 198.11352539 C-50.13642011 200.72043312 -44.95572206 200.397626 -39.69384766 200.37231445 C-38.34120064 200.37757141 -38.34120064 200.37757141 -36.96122742 200.38293457 C-33.98644247 200.39171884 -31.01189667 200.38590938 -28.03710938 200.37915039 C-25.95409093 200.38049916 -23.87107279 200.38244146 -21.78805542 200.38494873 C-17.41856901 200.38789652 -13.04916439 200.38361776 -8.6796875 200.37426758 C-3.12119489 200.36294414 2.43710303 200.36938934 7.9955883 200.38141251 C12.30257586 200.38870119 16.60951868 200.38631011 20.91650772 200.38115692 C22.96310576 200.37983601 25.00970806 200.38141255 27.05630112 200.38611603 C47.78706174 201.70068543 47.78706174 201.70068543 66.15820312 195.11352539 C65.78069367 189.71304289 62.64372444 186.37597054 59.40820312 182.30102539 C58.53844849 181.1848584 58.53844849 181.1848584 57.65112305 180.04614258 C53.11931156 174.25647976 48.48688723 168.54782883 43.82958984 162.85888672 C39.65105064 157.74988563 35.60733522 152.55123259 31.60351562 147.30493164 C29.06961606 143.98721519 26.49243393 140.70461074 23.90820312 137.42602539 C19.63702642 132.00485768 15.39187022 126.56403424 11.15820312 121.11352539 C5.18511564 113.42551324 -0.81860117 105.7623122 -6.84179688 98.11352539 C-11.66104043 91.99362354 -16.47728902 85.8716081 -21.25976562 79.72290039 C-21.84830322 78.9676709 -22.43684082 78.21244141 -23.04321289 77.43432617 C-24.24274845 75.88650684 -25.43466559 74.33275337 -26.61889648 72.77319336 C-29.3233488 69.230462 -32.01812441 65.84779524 -35.17773438 62.69946289 C-42.13913608 55.52150359 -43.7415766 49.92825535 -43.65429688 39.86352539 C-43.39072386 29.10526753 -42.72622808 16.87142685 -35.34179688 8.39086914 C-25.73337592 -0.66150894 -12.37679808 -0.03749304 0 0 Z M-1320.30664062 160.36352539 C-1328.04476276 168.39778198 -1333.91029336 178.23696776 -1334.15429688 189.55102539 C-1334.19167969 190.68411133 -1334.2290625 191.81719727 -1334.26757812 192.98461914 C-1334.07933396 196.15583506 -1334.07933396 196.15583506 -1332.19726562 198.46118164 C-1327.68110369 201.62923554 -1322.27175166 201.23700114 -1316.91845703 201.22705078 C-1315.92227859 201.22726982 -1315.92227859 201.22726982 -1314.90597534 201.22749329 C-1312.73090239 201.22680173 -1310.5559172 201.21904512 -1308.38085938 201.21118164 C-1306.86485847 201.20931477 -1305.34885695 201.20789214 -1303.83285522 201.20689392 C-1299.85775057 201.20308995 -1295.8826829 201.19327792 -1291.90759277 201.18218994 C-1287.84530131 201.17193009 -1283.78300383 201.16738653 -1279.72070312 201.16235352 C-1271.7610508 201.15165362 -1263.80142845 201.13460285 -1255.84179688 201.11352539 C-1255.76568486 194.22679733 -1255.71317092 187.3401779 -1255.67700195 180.453125 C-1255.66192259 178.11063585 -1255.6414561 175.76817489 -1255.61547852 173.42578125 C-1255.57905867 170.05730222 -1255.56206175 166.68919675 -1255.54882812 163.32055664 C-1255.53334427 162.27454788 -1255.51786041 161.22853912 -1255.50190735 160.15083313 C-1255.43792194 153.12132523 -1255.43792194 153.12132523 -1258.84179688 147.11352539 C-1274.8376679 135.59649825 -1307.79140618 148.93915924 -1320.30664062 160.36352539 Z " fill="#000000" transform="translate(1920.841796875,100.886474609375)"/>
<path d="M0 0 C7.69071855 6.92619741 14.32988579 14.30418494 20 23 C20.60457031 23.92167969 21.20914062 24.84335937 21.83203125 25.79296875 C38.15384669 52.14256623 41.74580252 88.77372951 35.09765625 118.82421875 C30.02530744 138.87622612 22.29329744 157.01639237 9 173 C8.24203125 173.92167969 7.4840625 174.84335937 6.703125 175.79296875 C-19.98453001 206.71052986 -61.28208058 219.27769112 -100.76098633 222.53515625 C-147.9989624 225.80145369 -198.06421835 218.73346702 -235.28125 187.3984375 C-257.70699148 167.61480924 -269.70847876 143.75749281 -273 114 C-273.28398332 108.93365632 -273.33421537 103.88602886 -273.3125 98.8125 C-273.31067719 98.13468475 -273.30885437 97.45686951 -273.30697632 96.7585144 C-273.2307309 79.87052596 -270.63674836 64.87768758 -265 49 C-264.64292969 47.97648438 -264.28585937 46.95296875 -263.91796875 45.8984375 C-258.47167103 31.61874524 -249.65770199 19.76789979 -239 9 C-238.26136719 8.20078125 -237.52273438 7.4015625 -236.76171875 6.578125 C-212.61393881 -19.02646798 -173.97394731 -31.01896339 -140 -35 C-139.20029785 -35.0942627 -138.4005957 -35.18852539 -137.57666016 -35.28564453 C-89.65885598 -40.29331934 -37.21831861 -32.54981871 0 0 Z M-181 45 C-181.65097656 45.53882813 -182.30195312 46.07765625 -182.97265625 46.6328125 C-194.00352571 56.63346408 -202.89887302 73.69214409 -204.22143555 88.47509766 C-205.06763341 107.88532501 -201.99558417 123.49454883 -189.1875 138.8125 C-174.44749274 154.4543815 -150.9218296 162.86449063 -129.76708984 164.20483398 C-126.42509153 164.30251399 -123.09335939 164.3292683 -119.75 164.3125 C-118.56559326 164.30686035 -117.38118652 164.3012207 -116.16088867 164.29541016 C-90.98665001 163.94775198 -68.40432034 155.55638331 -50.03515625 138.13671875 C-37.72636715 125.1022414 -31.14083058 107.20824074 -30.96484375 89.453125 C-31.82041383 70.6723183 -39.59933957 54.96607063 -52.9375 41.9375 C-62.80438746 33.53616059 -75.49233717 27.97801496 -88 25 C-89.27617188 24.68289063 -89.27617188 24.68289063 -90.578125 24.359375 C-121.89898 17.63403804 -156.41003757 24.05441578 -181 45 Z " fill="#000000" transform="translate(1483,567)"/>
<path d="M0 0 C4.53620958 0.00639301 9.07242037 0.00684959 13.60863376 0.00802541 C22.13924765 0.01109295 30.66984821 0.01924234 39.20045632 0.0293749 C48.9374311 0.04068111 58.67440663 0.04608245 68.41138637 0.05107033 C88.38616486 0.06143065 108.36093148 0.07893809 128.3356998 0.10139394 C128.3356998 0.76139394 128.3356998 1.42139394 128.3356998 2.10139394 C127.70405917 2.45218007 127.07241855 2.8029662 126.4216373 3.16438222 C113.71196105 10.23116366 101.06947673 17.38667221 88.53467441 24.76008534 C83.10604208 27.94040624 77.64995389 31.0608675 72.14429355 34.10530019 C71.53911899 34.439968 70.93394443 34.77463582 70.31043124 35.11944509 C67.37952049 36.73775425 64.44492965 38.34877752 61.50610995 39.9527123 C55.23882451 43.39531238 49.19976841 47.00638967 43.3356998 51.10139394 C51.04234346 62.07121105 58.82872064 72.97912422 66.69458652 83.83528066 C69.41218153 87.58784194 72.12364452 91.34482813 74.8356998 95.10139394 C75.91900341 96.6014154 77.00233675 98.1014154 78.0856998 99.60139394 C110.5856998 144.60139394 110.5856998 144.60139394 112.21094394 146.85188222 C113.29327328 148.350392 114.37579254 149.84876463 115.45850253 151.34699941 C118.18377824 155.11869246 120.90561217 158.89278371 123.62085605 162.67170644 C126.31493585 166.41922512 129.01856875 170.15963394 131.73169589 173.89338613 C132.80947318 175.37701136 133.8852913 176.86206163 134.95923495 178.34846425 C136.53406347 180.52284194 138.12065569 182.68812695 139.7106998 184.85139394 C140.4059476 185.81649892 140.4059476 185.81649892 141.11524081 186.80110097 C145.78504933 193.10246913 150.52306654 198.17658235 158.3356998 200.10139394 C161.90384894 200.38258883 165.4571346 200.38173201 169.03491855 200.36701894 C170.58116664 200.36988912 170.58116664 200.36988912 172.15865207 200.37281728 C174.33640419 200.37417537 176.51416451 200.37050523 178.69190097 200.36213613 C181.9945806 200.35148622 185.29670949 200.36201609 188.59937167 200.37483144 C190.72372181 200.37350871 192.84807162 200.37094398 194.97241855 200.36701894 C195.94676349 200.3710674 196.92110843 200.37511586 197.92497897 200.379287 C211.07017436 200.4974669 211.07017436 200.4974669 222.3356998 195.10139394 C225.03726247 188.53424706 225.77978624 182.18710221 225.76807284 175.15364003 C225.77826449 174.21583699 225.78845614 173.27803395 225.79895663 172.31181264 C225.82885862 169.249423 225.8383175 166.1873473 225.84741855 163.12483144 C225.86428215 160.9867697 225.88243463 158.84871778 225.90181613 156.71067739 C225.94913955 151.11141456 225.97906296 145.51219153 226.00525546 139.91279531 C226.04041595 133.17944207 226.09737816 126.44624161 226.15064883 119.71301198 C226.22895546 109.5091592 226.27971811 99.30550356 226.3356998 89.10139394 C247.7856998 89.10139394 269.2356998 89.10139394 291.3356998 89.10139394 C291.49691193 120.42580776 291.49691193 120.42580776 291.5310123 133.61115956 C291.55469299 142.69434127 291.58244287 151.77737392 291.63745761 160.86042714 C291.67751574 167.47730539 291.70317738 174.09406204 291.71205378 180.7110582 C291.71723672 184.20986576 291.72928674 187.70832565 291.75862002 191.207021 C291.79121582 195.12719702 291.79164714 199.04704301 291.78980136 202.96736073 C291.80418246 204.10816594 291.81856357 205.24897115 291.83338046 206.42434621 C291.75795547 221.32741321 286.3471806 234.30223314 276.32398105 245.28108144 C267.40967302 253.44231432 258.25654811 255.40148163 246.55054355 255.39192128 C244.77878253 255.40199712 244.77878253 255.40199712 242.97122836 255.41227651 C239.74397062 255.42798334 236.51686763 255.43462928 233.28957629 255.43590808 C231.27099395 255.437333 229.25243832 255.44160891 227.23386264 255.44690251 C220.18543424 255.46538025 213.1370813 255.47357555 206.08862948 255.47199941 C199.52765645 255.47079708 192.96701187 255.49192275 186.40612197 255.52348673 C180.7634754 255.5496619 175.12093608 255.56036626 169.47822928 255.55908859 C166.11223218 255.55857952 162.74652754 255.56423239 159.38059115 255.58544469 C155.62706764 255.60502124 151.87439298 255.59929892 148.12085605 255.58723378 C147.01106387 255.5984728 145.9012717 255.60971181 144.75784945 255.6212914 C138.64609856 255.57132439 134.95172168 255.25378989 130.3356998 251.10139394 C128.4606998 248.35139394 128.4606998 248.35139394 127.3356998 246.10139394 C126.8200748 246.84389394 126.3044498 247.58639394 125.7731998 248.35139394 C122.46047813 252.08882351 119.05424835 254.66321342 114.08401382 255.46432471 C111.4454923 255.60433706 108.83484463 255.6154102 106.19277072 255.582412 C105.18631942 255.5858297 104.17986812 255.5892474 103.14291829 255.59276867 C99.7785828 255.59934464 96.41504938 255.57737534 93.05078769 255.5554955 C90.63599296 255.55436697 88.22119685 255.555001 85.80640292 255.55726552 C80.61171953 255.55817568 75.41721668 255.54684818 70.2225883 255.52431417 C62.71212188 255.49175545 55.20175254 255.48138322 47.6912232 255.4763622 C35.50487049 255.4676156 23.31862511 255.44101731 11.13233066 255.40315175 C-0.70295035 255.36641519 -12.53820218 255.3381115 -24.37352872 255.3211205 C-25.468491 255.31954416 -25.468491 255.31954416 -26.58557373 255.31793597 C-30.24777656 255.31271569 -33.9099796 255.30766089 -37.57218277 255.30268836 C-67.93629874 255.2612461 -98.30028455 255.19051692 -128.6643002 255.10139394 C-124.85490785 253.09401622 -120.99642646 252.05872859 -116.83153653 251.04865956 C-116.03962006 250.85257478 -115.24770358 250.65648999 -114.43178964 250.45446324 C-111.78773272 249.80098758 -109.14205658 249.1543295 -106.49633145 248.50764394 C-104.61614286 248.0444157 -102.73605879 247.58076301 -100.85607266 247.11671376 C-96.83308 246.12465272 -92.80936502 245.13559606 -88.78505826 244.14887929 C-82.44631544 242.59464927 -76.10927962 241.03353853 -69.7724545 239.47151113 C-52.58808325 235.2371212 -35.39986101 231.01841767 -18.21188092 226.79870629 C-9.4663791 224.65153257 -0.7213151 222.50258349 8.0231998 220.35139394 C8.77036761 220.16762826 9.51753543 219.98386258 10.28734469 219.79452825 C29.14541888 215.15553042 47.98692476 210.46249714 66.7731998 205.53889394 C68.08579272 205.19537892 68.08579272 205.19537892 69.42490268 204.84492421 C71.79061932 204.22419274 74.15525933 203.59959261 76.51929355 202.97248769 C77.19546725 202.7942899 77.87164096 202.61609212 78.56830478 202.4324944 C80.93448014 201.79907378 83.13850075 201.19999346 85.3356998 200.10139394 C84.51327792 199.09721425 83.69085605 198.09303456 82.8435123 197.05842519 C76.7142801 189.5560678 70.67075236 182.00967767 64.79273105 174.30842519 C62.191674 170.90285271 59.54877986 167.53099829 56.8981998 164.16389394 C56.44042148 163.58236562 55.98264316 163.0008373 55.51099277 162.40168691 C54.58310359 161.22349254 53.65504326 160.04543295 52.72681308 158.86750722 C50.42695742 155.94768346 48.13154035 153.024375 45.8356998 150.10139394 C44.9190547 148.93471033 44.00238802 147.76804366 43.0856998 146.60139394 C41.25236646 144.2680606 39.41903313 141.93472727 37.5856998 139.60139394 C37.1321915 139.0242162 36.6786832 138.44703847 36.21143222 137.8523705 C35.29226667 136.68249378 34.37315885 135.51257171 33.454108 134.34260488 C31.20113886 131.47468237 28.94726257 128.60748404 26.69116855 125.74201894 C20.94617093 118.44249255 15.23366362 111.11834494 9.53443027 103.78303456 C4.59911049 97.43356365 -0.36280768 91.10547558 -5.33764005 84.78694081 C-8.07650328 81.30716316 -10.8111255 77.82405082 -13.54662442 74.34162831 C-15.79937733 71.47405329 -18.0529891 68.6071644 -20.30883145 65.74201894 C-26.05609288 58.43961618 -31.77114746 51.11280946 -37.47216153 43.7742455 C-41.02269183 39.20588033 -44.58544649 34.64759526 -48.1643002 30.10139394 C-49.49515882 28.40793837 -50.82565279 26.71419705 -52.15599942 25.02033925 C-53.25829193 23.61794056 -54.36162725 22.21636135 -55.46556973 20.81526113 C-57.38944407 18.37167182 -59.30846391 15.92433228 -61.2268002 13.47639394 C-61.8352377 12.70553456 -62.4436752 11.93467519 -63.0705502 11.14045644 C-63.63902677 10.41342519 -64.20750333 9.68639394 -64.79320645 8.93733144 C-65.29924405 8.29328359 -65.80528165 7.64923573 -66.32665372 6.98567128 C-67.66995167 5.09343299 -68.65038487 3.18392407 -69.6643002 1.10139394 C-46.43581004 0.22988684 -23.24319441 -0.03849879 0 0 Z " fill="#E10000" transform="translate(201.66430020332336,100.89860606193542)"/>
<path d="M0 0 C62.7 0 125.4 0 190 0 C186.42655728 3.57344272 182.96490276 6.74887132 179 9.8125 C178.40461426 10.27624023 177.80922852 10.73998047 177.19580078 11.21777344 C163.96940585 21.48830737 150.6088762 31.58731402 137.18701172 41.60058594 C136.43436035 42.16293945 135.68170898 42.72529297 134.90625 43.3046875 C134.11436279 43.87364746 133.32247559 44.44260742 132.5065918 45.02880859 C129.88706072 46.9972558 129.88706072 46.9972558 127.44067383 49.64697266 C118.43073039 58.24969131 109.82969048 58.14513317 97.72851562 57.87890625 C95.38147063 57.79538152 93.03446539 57.71073242 90.6875 57.625 C88.28980677 57.57476107 85.89201192 57.52914755 83.49414062 57.48828125 C77.65817019 57.38741761 71.83648857 57.19177947 66 57 C66 70.86 66 84.72 66 99 C102.63 99 139.26 99 177 99 C177 117.81 177 136.62 177 156 C140.37 156 103.74 156 66 156 C66 170.52 66 185.04 66 200 C106.92 200 147.84 200 190 200 C190 219.47 190 238.94 190 259 C127.3 259 64.6 259 0 259 C0 173.53 0 88.06 0 0 Z " fill="#000000" transform="translate(67,531)"/>
<path d="M0 0 C62.7 0 125.4 0 190 0 C186.49401765 3.50598235 183.39202015 6.36732884 179.5 9.3125 C178.95158447 9.72927002 178.40316895 10.14604004 177.83813477 10.57543945 C176.59386885 11.52081197 175.34843401 12.46464728 174.10205078 13.40722656 C171.79100239 15.15836241 169.48689076 16.91836936 167.18359375 18.6796875 C157.4934246 26.08556224 147.76539952 33.43836924 138.00048828 40.74536133 C127.09781872 48.40586105 127.09781872 48.40586105 117 57 C115.40389018 57.09333705 113.80366572 57.11745372 112.20483398 57.11352539 C111.18385117 57.11344986 110.16286835 57.11337433 109.11094666 57.11329651 C108.0005452 57.10813522 106.89014374 57.10297394 105.74609375 57.09765625 C104.61551041 57.0962413 103.48492706 57.09482635 102.32008362 57.09336853 C98.69252935 57.08775019 95.06503576 57.07519458 91.4375 57.0625 C88.98502693 57.05748736 86.5325529 57.05292405 84.08007812 57.04882812 C78.05334296 57.0386237 72.02673978 57.01905186 66 57 C66 70.86 66 84.72 66 99 C102.63 99 139.26 99 177 99 C177 117.81 177 136.62 177 156 C140.37 156 103.74 156 66 156 C66 170.52 66 185.04 66 200 C106.92 200 147.84 200 190 200 C190 219.47 190 238.94 190 259 C127.3 259 64.6 259 0 259 C0 173.53 0 88.06 0 0 Z " fill="#000000" transform="translate(514,531)"/>
<path d="M0 0 C62.7 0 125.4 0 190 0 C186.8216801 3.1783199 184.12246022 5.81597847 180.62109375 8.4609375 C179.37839722 9.40380615 179.37839722 9.40380615 178.1105957 10.36572266 C177.22847412 11.02878418 176.34635254 11.6918457 175.4375 12.375 C174.51219482 13.07544434 173.58688965 13.77588867 172.63354492 14.49755859 C165.55385692 19.85044945 158.44514776 25.16477586 151.33422852 30.47607422 C144.90808075 35.28756399 138.55976949 40.19336033 132.26098633 45.17041016 C130.93557978 46.21185739 129.60227523 47.24336457 128.25975037 48.26264954 C126.75611379 49.41868152 125.27554703 50.60536904 123.82012939 51.82154846 C117.21061515 57.01293318 112.3659044 57.97066194 104.0859375 57.68359375 C102.44245834 57.6687368 102.44245834 57.6687368 100.76577759 57.65357971 C97.30076489 57.61470834 93.83903866 57.52693343 90.375 57.4375 C88.01176482 57.40235113 85.64847949 57.37041844 83.28515625 57.34179688 C77.52118417 57.27101125 71.76422522 57.13400228 66 57 C66 70.86 66 84.72 66 99 C102.63 99 139.26 99 177 99 C177 117.81 177 136.62 177 156 C140.37 156 103.74 156 66 156 C66 170.52 66 185.04 66 200 C106.92 200 147.84 200 190 200 C190 219.47 190 238.94 190 259 C127.3 259 64.6 259 0 259 C0 173.53 0 88.06 0 0 Z " fill="#E10000" transform="translate(1819,531)"/>
<path d="M0 0 C1.87999316 0.00374289 3.7599883 0.0065838 5.63998413 0.00857544 C10.52243703 0.01611163 15.40476568 0.0356705 20.28717041 0.0579834 C25.29559652 0.07866119 30.30404325 0.08762343 35.3125 0.09765625 C45.0911996 0.11892875 54.86980811 0.15293918 64.6484375 0.1953125 C64.6484375 0.8553125 64.6484375 1.5153125 64.6484375 2.1953125 C63.18994141 3.48535156 63.18994141 3.48535156 61.125 4.9609375 C60.36002197 5.51434814 59.59504395 6.06775879 58.80688477 6.63793945 C57.97084717 7.23437256 57.13480957 7.83080566 56.2734375 8.4453125 C49.49400677 13.35495208 42.79822855 18.34294626 36.2109375 23.5078125 C30.53956868 27.94732781 24.83833255 32.33331675 19.0625 36.63671875 C14.254458 40.22839563 9.48532914 43.87161371 4.7109375 47.5078125 C3.34134888 48.54977783 3.34134888 48.54977783 1.9440918 49.61279297 C0.63952026 50.60690186 0.63952026 50.60690186 -0.69140625 51.62109375 C-1.46863037 52.21317627 -2.24585449 52.80525879 -3.04663086 53.4152832 C-4.67175261 54.6703158 -6.24508913 55.99382713 -7.77612305 57.36206055 C-10.77409927 59.49608306 -12.57794409 59.81564446 -16.21875 60.1015625 C-17.34450439 60.20307617 -18.47025879 60.30458984 -19.63012695 60.40917969 C-20.81695068 60.50360352 -22.00377441 60.59802734 -23.2265625 60.6953125 C-46.93625159 62.98671027 -68.78914102 69.8675084 -84.61328125 88.90234375 C-96.99462657 105.23459027 -100.71683464 125.42292048 -98.03515625 145.57275391 C-95.12261571 161.53163805 -88.04894193 173.57056996 -75.0390625 183.4453125 C-54.0118076 197.93075477 -31.20964253 199.46622757 -6.54296875 199.609375 C-4.47931683 199.6281272 -2.41567224 199.64770348 -0.35203552 199.6680603 C5.02848951 199.71896002 10.40903928 199.75880886 15.78967285 199.79620361 C22.27283045 199.84362144 28.75586934 199.90503522 35.23892975 199.96405029 C45.04204996 200.05174721 54.8451534 200.12187966 64.6484375 200.1953125 C64.6484375 219.6653125 64.6484375 239.1353125 64.6484375 259.1953125 C43.72946516 259.27553012 43.72946516 259.27553012 34.63671875 259.29296875 C28.49361608 259.30480732 22.35057441 259.31862626 16.20751953 259.34619141 C-41.16443908 259.59643671 -41.16443908 259.59643671 -62.4140625 254.9453125 C-63.95114868 254.621073 -63.95114868 254.621073 -65.51928711 254.2902832 C-90.43564244 248.80997451 -113.22685285 237.09692692 -132.3515625 220.1953125 C-133.05796875 219.57269531 -133.764375 218.95007813 -134.4921875 218.30859375 C-155.46925443 198.61162343 -163.45169705 169.60710273 -164.63671875 141.70703125 C-165.3440223 113.10053197 -159.35661594 83.71455122 -142.3515625 60.1953125 C-141.78308594 59.40511719 -141.21460938 58.61492188 -140.62890625 57.80078125 C-114.95349841 24.05751702 -75.6397685 7.373723 -34.51728821 1.66282654 C-22.97885349 0.21690568 -11.61716099 -0.06930384 0 0 Z " fill="#000000" transform="translate(895.3515625,530.8046875)"/>
<path d="M0 0 C1.87999316 0.00374289 3.7599883 0.0065838 5.63998413 0.00857544 C10.52243703 0.01611163 15.40476568 0.0356705 20.28717041 0.0579834 C25.29559652 0.07866119 30.30404325 0.08762343 35.3125 0.09765625 C45.0911996 0.11892875 54.86980811 0.15293918 64.6484375 0.1953125 C64.6484375 0.8553125 64.6484375 1.5153125 64.6484375 2.1953125 C63.18994141 3.48535156 63.18994141 3.48535156 61.125 4.9609375 C60.3606665 5.51386475 59.59633301 6.06679199 58.80883789 6.63647461 C57.97215576 7.23339111 57.13547363 7.83030762 56.2734375 8.4453125 C49.66308754 13.2336542 43.12974063 18.09039176 36.7109375 23.1328125 C29.58626734 28.71900557 22.40255516 34.21856291 15.09423828 39.56323242 C10.9816244 42.5904742 7.06455263 45.65958476 3.33203125 49.1484375 C-8.43235595 59.85911533 -18.7444749 61.08919042 -34.34277344 61.96777344 C-52.57090386 63.3462721 -70.05873242 73.33823934 -82.6015625 86.3203125 C-95.59745292 101.96953055 -99.8320937 120.81885754 -98.58349609 140.79248047 C-96.99943328 157.20337125 -90.42454399 170.70803275 -77.74609375 181.390625 C-56.11834997 197.80648825 -31.76688632 199.45576125 -5.6640625 199.609375 C-3.62426002 199.6281319 -1.58446493 199.64770849 0.45532227 199.6680603 C5.76842853 199.71891053 11.08155983 199.75878519 16.39477539 199.79620361 C22.79953131 199.84366138 29.20416766 199.90505306 35.60882568 199.96405029 C45.28864676 200.05168653 54.96845166 200.12186213 64.6484375 200.1953125 C64.6484375 219.6653125 64.6484375 239.1353125 64.6484375 259.1953125 C43.72946516 259.27553012 43.72946516 259.27553012 34.63671875 259.29296875 C28.49361608 259.30480732 22.35057441 259.31862626 16.20751953 259.34619141 C-39.86964275 259.59095203 -94.43681573 257.0481646 -136.84765625 215.765625 C-158.60049104 192.76869394 -165.12548427 161.90041943 -164.53515625 131.10546875 C-163.51426876 98.64631928 -152.28991053 68.40592579 -129.3515625 45.1953125 C-128.29582031 44.03128906 -128.29582031 44.03128906 -127.21875 42.84375 C-95.7358232 8.96668428 -44.04993726 -0.26278623 0 0 Z " fill="#E00000" transform="translate(2212.3515625,530.8046875)"/>
<path d="M0 0 C80.19 0 160.38 0 243 0 C237.37091988 5.62908012 237.37091988 5.62908012 234.27734375 8.0234375 C233.58447266 8.56162109 232.89160156 9.09980469 232.17773438 9.65429688 C231.43845703 10.22212891 230.69917969 10.78996094 229.9375 11.375 C229.15310547 11.98150391 228.36871094 12.58800781 227.56054688 13.21289062 C220.9145992 18.33526136 214.20096189 23.36593617 207.47558594 28.38330078 C202.59572927 32.03042127 197.75434688 35.71972135 192.95800781 39.47607422 C191.45369402 40.65138003 189.94396323 41.81978769 188.42871094 42.98095703 C184.38037833 46.08729782 180.49660949 49.25881424 176.78735352 52.76611328 C169.67254802 58.38463553 164.61937622 59.6474603 155.515625 59.2890625 C154.50129395 59.2681958 153.48696289 59.2473291 152.44189453 59.22583008 C149.95991776 59.17174696 147.48064926 59.09599912 145 59 C145.00138269 59.90818954 145.00138269 59.90818954 145.00279331 60.83472633 C145.03212515 80.43147829 145.05136901 100.02822988 145.0625 119.625 C145.0629343 120.36790881 145.06336861 121.11081762 145.06381607 121.87623882 C145.08982838 167.59588257 144.85050395 213.28541268 144 259 C122.88 259 101.76 259 80 259 C80 193 80 127 80 59 C53.6 59 27.2 59 0 59 C0 39.53 0 20.06 0 0 Z " fill="#000000" transform="translate(1000,531)"/>
<path d="M0 0 C80.19 0 160.38 0 243 0 C237.37188209 5.62811791 237.37188209 5.62811791 234.13671875 8.12890625 C233.42322266 8.68255859 232.70972656 9.23621094 231.97460938 9.80664062 C231.21986328 10.38607422 230.46511719 10.96550781 229.6875 11.5625 C228.89279297 12.17673828 228.09808594 12.79097656 227.27929688 13.42382812 C221.57611325 17.82031574 215.82470985 22.15002835 210.05053711 26.45263672 C204.89942587 30.29987094 199.81719041 34.23056351 194.75 38.1875 C187.89347461 43.54076592 181.012154 48.85092925 174 54 C173.02571045 54.85907959 172.0514209 55.71815918 171.04760742 56.60327148 C166.20979957 60.05504835 161.29247369 59.55482159 155.5625 59.3125 C154.54478516 59.28994141 153.52707031 59.26738281 152.47851562 59.24414062 C149.98412561 59.18558687 147.49285517 59.10364308 145 59 C145.00111031 59.58791447 145.00222061 60.17582893 145.00336456 60.78155899 C145.0778061 102.41507179 144.87807665 144.04297986 144.55461788 185.67509317 C144.48049358 195.23001391 144.41008251 204.78496216 144.33936501 214.3399086 C144.22909648 229.22662843 144.11419928 244.1133086 144 259 C122.88 259 101.76 259 80 259 C80 193 80 127 80 59 C53.6 59 27.2 59 0 59 C0 39.53 0 20.06 0 0 Z " fill="#E00000" transform="translate(1536,531)"/>
<path d="M0 0 C21.45 0 42.9 0 65 0 C65 66.33 65 132.66 65 201 C102.29 201 139.58 201 178 201 C178 220.14 178 239.28 178 259 C119.26 259 60.52 259 0 259 C0 173.53 0 88.06 0 0 Z " fill="#000000" transform="translate(296,531)"/>
<path d="M0 0 C21.12 0 42.24 0 64 0 C64 84.15 64 168.3 64 255 C42.88 255 21.76 255 0 255 C0 170.85 0 86.7 0 0 Z " fill="#000000" transform="translate(2208,101)"/>
<path d="M0 0 C21.45 0 42.9 0 65 0 C65 16.17 65 32.34 65 49 C43.55 49 22.1 49 0 49 C0 32.83 0 16.66 0 0 Z " fill="#000000" transform="translate(1795,102)"/>
<path d="M0 0 C21.45 0 42.9 0 65 0 C65 16.17 65 32.34 65 49 C43.55 49 22.1 49 0 49 C0 32.83 0 16.66 0 0 Z " fill="#E20000" transform="translate(428,102)"/>
<path d="M0 0 C21.45 0 42.9 0 65 0 C65 16.17 65 32.34 65 49 C43.55 49 22.1 49 0 49 C0 32.83 0 16.66 0 0 Z " fill="#E20000" transform="translate(346,102)"/>
<path d="M0 0 C21.12 0 42.24 0 64 0 C64 16.17 64 32.34 64 49 C42.88 49 21.76 49 0 49 C0 32.83 0 16.66 0 0 Z " fill="#000000" transform="translate(1714,102)"/>
</svg>
